<?xml version="1.0" encoding="iso-8859-1"?>
<!-- Generator: Adobe Illustrator 19.0.0, SVG Export Plug-In . SVG Version: 6.00 Build 0)  -->
<svg version="1.1" id="Layer_1" xmlns="http://www.w3.org/2000/svg" xmlns:xlink="http://www.w3.org/1999/xlink" x="0px" y="0px"
	 viewBox="0 0 512 512" style="enable-background:new 0 0 512 512;" xml:space="preserve">
<g>
	<g>
		<path d="M290.133,298.667c-18.825,0-34.133,15.309-34.133,34.133s15.309,34.133,34.133,34.133s34.133-15.309,34.133-34.133
			S308.958,298.667,290.133,298.667z M290.133,349.867c-9.412,0-17.067-7.654-17.067-17.067s7.654-17.067,17.067-17.067
			c9.412,0,17.067,7.654,17.067,17.067S299.546,349.867,290.133,349.867z"/>
	</g>
</g>
<g>
	<g>
		<path d="M486.4,145.067H162.133c-48.273,0-86.852,69.427-92.937,162.133H51.2v-17.067c0-4.719-3.823-8.533-8.533-8.533
			c-4.71,0-8.533,3.814-8.533,8.533V307.2H17.067v-17.067c0-4.719-3.823-8.533-8.533-8.533S0,285.414,0,290.133v25.6
			c0,4.719,3.823,8.533,8.533,8.533h25.6v17.067H25.6c-4.71,0-8.533,3.814-8.533,8.533S20.89,358.4,25.6,358.4h17.067
			c4.71,0,8.533-3.814,8.533-8.533v-25.6h17.271c-0.06,2.85-0.205,5.649-0.205,8.533c0,4.719,3.823,8.533,8.533,8.533h153.6
			c4.71,0,8.533-3.814,8.533-8.533c0-28.237,22.963-51.2,51.2-51.2c28.237,0,51.2,22.963,51.2,51.2c0,4.719,3.823,8.533,8.533,8.533
			h153.6c4.719,0,8.533-3.814,8.533-8.533V170.667C512,156.552,500.514,145.067,486.4,145.067z M494.933,273.067H486.4
			c-4.719,0-8.533,3.814-8.533,8.533s3.814,8.533,8.533,8.533h8.533v34.133H357.871c-4.215-33.621-32.99-59.733-67.738-59.733
			c-34.748,0-63.522,26.112-67.738,59.733H85.436c2.074-88.73,36.352-162.133,76.698-162.133H486.4c4.71,0,8.533,3.823,8.533,8.533
			V273.067z"/>
	</g>
</g>
<g>
	<g>
		<path d="M230.4,187.733h-76.8c-4.71,0-8.533,3.814-8.533,8.533v42.667c0,4.719,3.823,8.533,8.533,8.533h76.8
			c4.71,0,8.533-3.814,8.533-8.533v-42.667C238.933,191.548,235.11,187.733,230.4,187.733z M221.867,230.4h-59.733v-25.6h59.733
			V230.4z"/>
	</g>
</g>
<g>
	<g>
		<path d="M426.667,179.2H384c-4.71,0-8.533,3.814-8.533,8.533v110.933c0,4.719,3.823,8.533,8.533,8.533h42.667
			c4.719,0,8.533-3.814,8.533-8.533V187.733C435.2,183.014,431.386,179.2,426.667,179.2z M418.133,290.133h-25.6v-93.867h25.6
			V290.133z"/>
	</g>
</g>
<g>
</g>
<g>
</g>
<g>
</g>
<g>
</g>
<g>
</g>
<g>
</g>
<g>
</g>
<g>
</g>
<g>
</g>
<g>
</g>
<g>
</g>
<g>
</g>
<g>
</g>
<g>
</g>
<g>
</g>
</svg>
